<?xml version="1.0" encoding="UTF-8" standalone="no"?>
<!-- Created with Inkscape (http://www.inkscape.org/) -->

<svg
   width="498.93469mm"
   height="122.08987mm"
   viewBox="0 0 498.93469 122.08987"
   version="1.1"
   id="svg5"
   xml:space="preserve"
   inkscape:version="1.2.2 (b0a8486541, 2022-12-01)"
   sodipodi:docname="simple-feedback.svg"
   xmlns:inkscape="http://www.inkscape.org/namespaces/inkscape"
   xmlns:sodipodi="http://sodipodi.sourceforge.net/DTD/sodipodi-0.dtd"
   xmlns:xlink="http://www.w3.org/1999/xlink"
   xmlns="http://www.w3.org/2000/svg"
   xmlns:svg="http://www.w3.org/2000/svg"><sodipodi:namedview
     id="namedview7"
     pagecolor="#505050"
     bordercolor="#ffffff"
     borderopacity="1"
     inkscape:showpageshadow="0"
     inkscape:pageopacity="0"
     inkscape:pagecheckerboard="1"
     inkscape:deskcolor="#505050"
     inkscape:document-units="mm"
     showgrid="false"
     inkscape:zoom="0.26615663"
     inkscape:cx="743.92286"
     inkscape:cy="375.71861"
     inkscape:window-width="1920"
     inkscape:window-height="1080"
     inkscape:window-x="0"
     inkscape:window-y="0"
     inkscape:window-maximized="1"
     inkscape:current-layer="layer1" /><defs
     id="defs2"><marker
       style="overflow:visible"
       id="marker2854"
       refX="0"
       refY="0"
       orient="auto-start-reverse"
       inkscape:stockid="TriangleStart"
       markerWidth="5.3244081"
       markerHeight="6.155385"
       viewBox="0 0 5.3244081 6.1553851"
       inkscape:isstock="true"
       inkscape:collect="always"
       preserveAspectRatio="xMidYMid"><path
         transform="scale(0.5)"
         style="fill:context-stroke;fill-rule:evenodd;stroke:context-stroke;stroke-width:1pt"
         d="M 5.77,0 -2.88,5 V -5 Z"
         id="path2852" /></marker><marker
       style="overflow:visible"
       id="TriangleStart"
       refX="0"
       refY="0"
       orient="auto-start-reverse"
       inkscape:stockid="TriangleStart"
       markerWidth="5.3244081"
       markerHeight="6.155385"
       viewBox="0 0 5.3244081 6.1553851"
       inkscape:isstock="true"
       inkscape:collect="always"
       preserveAspectRatio="xMidYMid"><path
         transform="scale(0.5)"
         style="fill:context-stroke;fill-rule:evenodd;stroke:context-stroke;stroke-width:1pt"
         d="M 5.77,0 -2.88,5 V -5 Z"
         id="path135" /></marker><path
       id="MJSZ2-2211"
       stroke-width="10"
       d="m 60,948 q 3,2 605,2 h 602 l 58,-135 q 59,-138 63,-146 h -40 l -7,14 q -21,41 -56,78 -50,48 -111,77 -61,29 -141,43 -80,14 -151,17 -71,3 -183,4 H 574 543 251 l 8,-11 q 463,-633 465,-639 1,-2 0,-6 -3,-3 -264,-302 L 196,-356 q 0,-1 211,-1 52,0 141,0 89,0 128,-1 136,0 220,5 84,5 167,21 83,16 141,49 58,33 103,87 21,26 41,72 h 40 q 0,-1 -7,-21 -7,-20 -25,-65 -18,-45 -31,-84 l -58,-155 -601,-1 q -602,0 -605,2 -6,2 -6,9 0,2 2,6 l 533,610 q 0,1 -33,45 -33,44 -105,144 -72,100 -130,178 L 56,909 55,924 q 0,21 5,24 z" /><path
       id="MJMATHI-69"
       stroke-width="10"
       d="m 184,600 q 0,24 19,42 19,18 44,19 18,0 30,-12 12,-12 13,-30 0,-23 -20,-42 -20,-19 -44,-20 -15,0 -28,10 -13,10 -14,33 z M 21,287 q 0,8 9,31 9,23 24,51 15,28 44,51 29,23 60,22 39,0 65,-23 26,-23 27,-62 0,-17 -14,-56 -14,-39 -40,-105 -26,-66 -42,-113 -5,-22 -5,-32 0,-25 17,-25 9,0 19,3 10,3 23,14 13,11 27,35 14,24 25,59 3,12 5,14 2,2 17,2 20,0 20,-10 0,-8 -9,-31 -9,-23 -25,-51 -16,-28 -45,-50 -29,-22 -62,-22 -32,0 -59,21 -27,21 -28,64 0,17 5,32 5,15 43,114 38,101 44,121 6,20 7,39 0,24 -17,24 h -2 q -30,0 -55,-33 -25,-33 -38,-84 -1,-1 -2,-3 -1,-2 -1,-3 0,-1 -2,-2 -2,-1 -3,-1 -1,0 -4,0 -3,0 -8,0 H 27 q -6,6 -6,9 z" /><path
       id="MJMAIN-3D"
       stroke-width="10"
       d="m 56,347 q 0,13 14,20 h 637 q 15,-8 15,-20 0,-11 -14,-19 L 390,327 H 72 q -16,5 -16,20 z m 0,-194 q 0,15 16,20 h 636 q 14,-10 14,-20 0,-13 -15,-20 H 70 q -14,7 -14,20 z" /><path
       id="MJMAIN-30"
       stroke-width="10"
       d="m 96,585 q 56,81 153,81 48,0 96,-26 48,-26 78,-92 37,-83 37,-228 0,-155 -43,-237 -20,-42 -55,-67 -35,-25 -61,-31 -26,-6 -51,-7 -26,0 -52,6 -26,6 -61,32 -35,26 -55,67 -43,82 -43,237 0,174 57,265 z m 225,12 q -30,32 -71,32 -42,0 -72,-32 -25,-26 -33,-72 -8,-46 -8,-192 0,-158 8,-208 8,-50 36,-79 28,-30 69,-30 40,0 68,30 29,30 36,84 7,54 8,203 0,145 -8,191 -8,46 -33,73 z" /><path
       id="MJMATHI-6E"
       stroke-width="10"
       d="m 21,287 q 1,6 3,16 2,10 12,38 10,28 20,47 10,19 33,37 23,18 46,17 36,0 60,-18 24,-18 30,-34 6,-16 6,-21 0,-2 1,-2 l 11,11 q 61,64 139,64 54,0 87,-27 33,-27 34,-79 1,-52 -38,-157 -39,-105 -38,-127 0,-26 17,-26 6,0 9,1 29,5 52,38 23,33 35,80 2,8 20,8 20,0 20,-8 0,-1 -4,-15 -8,-29 -22,-57 -14,-28 -46,-56 -32,-28 -69,-27 -47,0 -68,27 -21,27 -21,56 0,19 36,120 36,101 37,152 0,59 -44,59 h -5 Q 288,404 229,303 L 222,291 189,157 Q 156,26 151,16 138,-11 108,-11 95,-11 87,-5 79,1 76,7 q -3,6 -2,10 0,13 38,163 38,150 40,163 1,5 1,23 0,39 -24,39 -38,0 -63,-100 -6,-20 -6,-21 -2,-6 -19,-6 H 27 q -6,6 -6,9 z" /><path
       id="MJMAIN-28"
       stroke-width="10"
       d="m 94,250 q 0,69 10,131 10,62 23,107 13,45 37,88 24,43 38,67 14,24 42,52 28,28 33,34 5,6 25,21 h 13 4 q 14,0 14,-9 0,-3 -17,-21 -17,-18 -41,-53 -24,-35 -49,-86 -25,-51 -42,-138 -17,-87 -17,-193 0,-106 17,-192 17,-86 41,-139 24,-53 49,-86 25,-33 42,-53 17,-20 17,-21 0,-9 -15,-9 h -3 -13 l -28,24 Q 180,-141 137,-14 94,113 94,250 Z" /><path
       id="MJMAIN-2B"
       stroke-width="10"
       d="m 56,237 q 0,0 0,13 0,13 14,20 h 299 v 150 l 1,150 q 10,13 19,13 13,0 20,-15 V 270 h 298 q 15,-8 15,-20 0,-12 -15,-20 H 409 V -68 q -8,-14 -18,-14 h -2 -2 q -12,0 -18,14 V 230 H 70 q -14,7 -14,20 z" /><path
       id="MJMAIN-31"
       stroke-width="10"
       d="m 213,578 -13,-5 q -14,-5 -40,-10 -26,-5 -58,-7 H 83 v 46 h 19 q 47,2 87,15 40,13 56,24 16,11 28,22 2,3 12,3 9,0 17,-6 V 361 l 1,-300 q 7,-7 12,-9 5,-2 24,-4 19,-2 62,-2 h 26 V 0 H 416 Q 395,3 257,3 121,3 100,0 H 88 v 46 h 26 q 22,0 38,0 16,0 25,1 9,1 16,3 7,2 8,2 1,0 6,5 5,5 6,4 z" /><path
       id="MJMAIN-29"
       stroke-width="10"
       d="m 60,749 4,1 q 5,0 10,0 h 12 l 28,-24 q 94,-85 137,-212 43,-127 43,-264 0,-68 -10,-131 -10,-63 -23,-107 -13,-44 -37,-88 -24,-44 -38,-67 -14,-23 -41,-51 -27,-28 -32,-33 -5,-5 -23,-19 -3,-3 -4,-4 H 74 q -8,0 -11,0 -3,0 -5,3 -2,3 -3,9 1,1 11,13 155,161 155,475 0,314 -155,475 -10,12 -11,13 0,8 5,11 z" /><path
       id="MJMAIN-32"
       stroke-width="10"
       d="m 109,429 q -27,0 -43,18 -16,18 -16,44 0,71 53,123 53,52 132,52 91,0 152,-56 61,-56 62,-145 0,-43 -20,-82 -20,-39 -48,-68 -28,-29 -80,-74 -36,-31 -100,-92 l -59,-56 76,-1 q 157,0 167,5 7,2 24,89 v 3 h 40 v -3 Q 448,183 436,95 424,7 421,3 V 0 H 50 v 19 12 q 0,7 6,15 6,8 30,35 29,32 50,56 9,10 34,37 25,27 34,37 9,10 29,33 20,23 28,34 8,11 23,30 15,19 21,32 6,13 15,29 9,16 13,32 4,16 7,30 3,14 3,33 0,63 -34,109 -34,46 -97,46 -33,0 -58,-17 -25,-17 -35,-33 -10,-16 -10,-19 0,-1 5,-1 18,0 37,-14 19,-14 19,-46 0,-25 -16,-42 -16,-17 -45,-18 z" /><path
       id="MJMATHI-78"
       stroke-width="10"
       d="m 52,289 q 7,42 54,97 47,55 116,56 35,0 64,-18 29,-18 43,-45 42,63 101,63 37,0 64,-22 27,-22 28,-59 0,-29 -14,-47 -14,-18 -27,-22 -13,-4 -23,-4 -19,0 -31,11 -12,11 -12,29 0,46 50,63 -11,13 -40,13 -13,0 -19,-2 -38,-16 -56,-66 -60,-221 -60,-258 0,-28 16,-40 16,-12 35,-12 37,0 73,33 36,33 49,81 3,10 6,11 3,1 16,2 h 4 q 15,0 15,-8 0,-1 -2,-11 Q 486,77 440,33 394,-11 333,-11 263,-11 227,52 186,-10 133,-10 h -6 q -49,0 -70,26 -21,26 -22,55 0,32 19,52 19,20 45,20 43,0 43,-42 Q 142,81 130,66 118,51 107,46 96,41 94,41 l -3,-1 q 0,-1 6,-4 6,-3 16,-7 10,-4 19,-3 36,0 62,45 9,16 23,68 14,52 28,108 14,56 16,66 5,27 5,39 0,28 -15,40 -15,12 -34,12 -40,0 -75,-32 -35,-32 -49,-82 -2,-9 -5,-10 -3,-1 -16,-2 H 58 q -6,6 -6,11 z" /><path
       id="MJMATHI-74"
       stroke-width="10"
       d="m 26,385 q -7,7 -7,10 0,4 3,16 3,12 5,14 2,5 9,5 7,0 51,1 h 53 l 19,80 q 3,11 7,29 4,18 7,26 3,8 6,20 3,12 8,17 5,5 10,12 5,7 14,9 9,2 18,2 18,-1 25,-11 7,-10 7,-19 0,-7 -9,-47 -9,-40 -20,-79 l -10,-37 q 0,-2 50,-2 h 51 q 7,-7 7,-11 0,-22 -13,-35 H 210 L 174,240 Q 135,80 135,68 q 0,-42 27,-42 35,0 68,34 33,34 53,84 2,6 5,7 3,1 15,2 h 4 q 15,0 15,-8 0,-3 -3,-12 Q 314,117 301,95 288,73 267,48 246,23 216,6 186,-11 155,-11 125,-11 98,4 71,19 59,56 57,64 57,83 v 18 l 35,140 q 35,141 36,142 0,2 -51,2 z" /><path
       id="MJSZ2-2211-3"
       stroke-width="10"
       d="m 60,948 q 3,2 605,2 h 602 l 58,-135 q 59,-138 63,-146 h -40 l -7,14 q -21,41 -56,78 -50,48 -111,77 -61,29 -141,43 -80,14 -151,17 -71,3 -183,4 H 574 543 251 l 8,-11 q 463,-633 465,-639 1,-2 0,-6 -3,-3 -264,-302 L 196,-356 q 0,-1 211,-1 52,0 141,0 89,0 128,-1 136,0 220,5 84,5 167,21 83,16 141,49 58,33 103,87 21,26 41,72 h 40 q 0,-1 -7,-21 -7,-20 -25,-65 -18,-45 -31,-84 l -58,-155 -601,-1 q -602,0 -605,2 -6,2 -6,9 0,2 2,6 l 533,610 q 0,1 -33,45 -33,44 -105,144 -72,100 -130,178 L 56,909 55,924 q 0,21 5,24 z" /><path
       id="MJMATHI-69-5"
       stroke-width="10"
       d="m 184,600 q 0,24 19,42 19,18 44,19 18,0 30,-12 12,-12 13,-30 0,-23 -20,-42 -20,-19 -44,-20 -15,0 -28,10 -13,10 -14,33 z M 21,287 q 0,8 9,31 9,23 24,51 15,28 44,51 29,23 60,22 39,0 65,-23 26,-23 27,-62 0,-17 -14,-56 -14,-39 -40,-105 -26,-66 -42,-113 -5,-22 -5,-32 0,-25 17,-25 9,0 19,3 10,3 23,14 13,11 27,35 14,24 25,59 3,12 5,14 2,2 17,2 20,0 20,-10 0,-8 -9,-31 -9,-23 -25,-51 -16,-28 -45,-50 -29,-22 -62,-22 -32,0 -59,21 -27,21 -28,64 0,17 5,32 5,15 43,114 38,101 44,121 6,20 7,39 0,24 -17,24 h -2 q -30,0 -55,-33 -25,-33 -38,-84 -1,-1 -2,-3 -1,-2 -1,-3 0,-1 -2,-2 -2,-1 -3,-1 -1,0 -4,0 -3,0 -8,0 H 27 q -6,6 -6,9 z" /><path
       id="MJMAIN-3D-6"
       stroke-width="10"
       d="m 56,347 q 0,13 14,20 h 637 q 15,-8 15,-20 0,-11 -14,-19 L 390,327 H 72 q -16,5 -16,20 z m 0,-194 q 0,15 16,20 h 636 q 14,-10 14,-20 0,-13 -15,-20 H 70 q -14,7 -14,20 z" /><path
       id="MJMAIN-30-2"
       stroke-width="10"
       d="m 96,585 q 56,81 153,81 48,0 96,-26 48,-26 78,-92 37,-83 37,-228 0,-155 -43,-237 -20,-42 -55,-67 -35,-25 -61,-31 -26,-6 -51,-7 -26,0 -52,6 -26,6 -61,32 -35,26 -55,67 -43,82 -43,237 0,174 57,265 z m 225,12 q -30,32 -71,32 -42,0 -72,-32 -25,-26 -33,-72 -8,-46 -8,-192 0,-158 8,-208 8,-50 36,-79 28,-30 69,-30 40,0 68,30 29,30 36,84 7,54 8,203 0,145 -8,191 -8,46 -33,73 z" /><path
       id="MJMATHI-6E-9"
       stroke-width="10"
       d="m 21,287 q 1,6 3,16 2,10 12,38 10,28 20,47 10,19 33,37 23,18 46,17 36,0 60,-18 24,-18 30,-34 6,-16 6,-21 0,-2 1,-2 l 11,11 q 61,64 139,64 54,0 87,-27 33,-27 34,-79 1,-52 -38,-157 -39,-105 -38,-127 0,-26 17,-26 6,0 9,1 29,5 52,38 23,33 35,80 2,8 20,8 20,0 20,-8 0,-1 -4,-15 -8,-29 -22,-57 -14,-28 -46,-56 -32,-28 -69,-27 -47,0 -68,27 -21,27 -21,56 0,19 36,120 36,101 37,152 0,59 -44,59 h -5 Q 288,404 229,303 L 222,291 189,157 Q 156,26 151,16 138,-11 108,-11 95,-11 87,-5 79,1 76,7 q -3,6 -2,10 0,13 38,163 38,150 40,163 1,5 1,23 0,39 -24,39 -38,0 -63,-100 -6,-20 -6,-21 -2,-6 -19,-6 H 27 q -6,6 -6,9 z" /><path
       id="MJMAIN-28-1"
       stroke-width="10"
       d="m 94,250 q 0,69 10,131 10,62 23,107 13,45 37,88 24,43 38,67 14,24 42,52 28,28 33,34 5,6 25,21 h 13 4 q 14,0 14,-9 0,-3 -17,-21 -17,-18 -41,-53 -24,-35 -49,-86 -25,-51 -42,-138 -17,-87 -17,-193 0,-106 17,-192 17,-86 41,-139 24,-53 49,-86 25,-33 42,-53 17,-20 17,-21 0,-9 -15,-9 h -3 -13 l -28,24 Q 180,-141 137,-14 94,113 94,250 Z" /><path
       id="MJMAIN-2B-2"
       stroke-width="10"
       d="m 56,237 q 0,0 0,13 0,13 14,20 h 299 v 150 l 1,150 q 10,13 19,13 13,0 20,-15 V 270 h 298 q 15,-8 15,-20 0,-12 -15,-20 H 409 V -68 q -8,-14 -18,-14 h -2 -2 q -12,0 -18,14 V 230 H 70 q -14,7 -14,20 z" /><path
       id="MJMAIN-31-7"
       stroke-width="10"
       d="m 213,578 -13,-5 q -14,-5 -40,-10 -26,-5 -58,-7 H 83 v 46 h 19 q 47,2 87,15 40,13 56,24 16,11 28,22 2,3 12,3 9,0 17,-6 V 361 l 1,-300 q 7,-7 12,-9 5,-2 24,-4 19,-2 62,-2 h 26 V 0 H 416 Q 395,3 257,3 121,3 100,0 H 88 v 46 h 26 q 22,0 38,0 16,0 25,1 9,1 16,3 7,2 8,2 1,0 6,5 5,5 6,4 z" /><path
       id="MJMAIN-29-0"
       stroke-width="10"
       d="m 60,749 4,1 q 5,0 10,0 h 12 l 28,-24 q 94,-85 137,-212 43,-127 43,-264 0,-68 -10,-131 -10,-63 -23,-107 -13,-44 -37,-88 -24,-44 -38,-67 -14,-23 -41,-51 -27,-28 -32,-33 -5,-5 -23,-19 -3,-3 -4,-4 H 74 q -8,0 -11,0 -3,0 -5,3 -2,3 -3,9 1,1 11,13 155,161 155,475 0,314 -155,475 -10,12 -11,13 0,8 5,11 z" /><path
       id="MJMAIN-32-9"
       stroke-width="10"
       d="m 109,429 q -27,0 -43,18 -16,18 -16,44 0,71 53,123 53,52 132,52 91,0 152,-56 61,-56 62,-145 0,-43 -20,-82 -20,-39 -48,-68 -28,-29 -80,-74 -36,-31 -100,-92 l -59,-56 76,-1 q 157,0 167,5 7,2 24,89 v 3 h 40 v -3 Q 448,183 436,95 424,7 421,3 V 0 H 50 v 19 12 q 0,7 6,15 6,8 30,35 29,32 50,56 9,10 34,37 25,27 34,37 9,10 29,33 20,23 28,34 8,11 23,30 15,19 21,32 6,13 15,29 9,16 13,32 4,16 7,30 3,14 3,33 0,63 -34,109 -34,46 -97,46 -33,0 -58,-17 -25,-17 -35,-33 -10,-16 -10,-19 0,-1 5,-1 18,0 37,-14 19,-14 19,-46 0,-25 -16,-42 -16,-17 -45,-18 z" /><path
       id="MJMATHI-78-3"
       stroke-width="10"
       d="m 52,289 q 7,42 54,97 47,55 116,56 35,0 64,-18 29,-18 43,-45 42,63 101,63 37,0 64,-22 27,-22 28,-59 0,-29 -14,-47 -14,-18 -27,-22 -13,-4 -23,-4 -19,0 -31,11 -12,11 -12,29 0,46 50,63 -11,13 -40,13 -13,0 -19,-2 -38,-16 -56,-66 -60,-221 -60,-258 0,-28 16,-40 16,-12 35,-12 37,0 73,33 36,33 49,81 3,10 6,11 3,1 16,2 h 4 q 15,0 15,-8 0,-1 -2,-11 Q 486,77 440,33 394,-11 333,-11 263,-11 227,52 186,-10 133,-10 h -6 q -49,0 -70,26 -21,26 -22,55 0,32 19,52 19,20 45,20 43,0 43,-42 Q 142,81 130,66 118,51 107,46 96,41 94,41 l -3,-1 q 0,-1 6,-4 6,-3 16,-7 10,-4 19,-3 36,0 62,45 9,16 23,68 14,52 28,108 14,56 16,66 5,27 5,39 0,28 -15,40 -15,12 -34,12 -40,0 -75,-32 -35,-32 -49,-82 -2,-9 -5,-10 -3,-1 -16,-2 H 58 q -6,6 -6,11 z" /><path
       id="MJMATHI-74-6"
       stroke-width="10"
       d="m 26,385 q -7,7 -7,10 0,4 3,16 3,12 5,14 2,5 9,5 7,0 51,1 h 53 l 19,80 q 3,11 7,29 4,18 7,26 3,8 6,20 3,12 8,17 5,5 10,12 5,7 14,9 9,2 18,2 18,-1 25,-11 7,-10 7,-19 0,-7 -9,-47 -9,-40 -20,-79 l -10,-37 q 0,-2 50,-2 h 51 q 7,-7 7,-11 0,-22 -13,-35 H 210 L 174,240 Q 135,80 135,68 q 0,-42 27,-42 35,0 68,34 33,34 53,84 2,6 5,7 3,1 15,2 h 4 q 15,0 15,-8 0,-3 -3,-12 Q 314,117 301,95 288,73 267,48 246,23 216,6 186,-11 155,-11 125,-11 98,4 71,19 59,56 57,64 57,83 v 18 l 35,140 q 35,141 36,142 0,2 -51,2 z" /><path
       id="MJMATHI-68"
       stroke-width="10"
       d="m 137,683 q 1,0 72,5 71,5 73,6 12,0 12,-9 0,-11 -36,-151 -38,-148 -38,-151 0,-2 7,5 61,54 130,54 54,0 87,-27 33,-27 34,-79 0,-51 -38,-158 -38,-107 -38,-128 1,-14 5,-19 4,-5 15,-5 28,0 52,30 24,30 39,82 3,11 6,13 3,2 16,2 20,0 20,-8 0,-1 -4,-15 -16,-59 -51,-97 -34,-43 -81,-43 h -5 q -47,0 -68,27 -21,27 -21,57 0,16 36,118 36,102 37,153 0,59 -44,59 h -5 q -83,0 -144,-98 L 198,293 164,158 Q 132,28 127,16 114,-11 83,-11 69,-11 59,-2 49,7 48,16 q 0,14 73,304 l 74,296 q 0,13 -7,16 -7,3 -39,5 h -21 q -6,6 -6,8 0,2 2,19 5,19 13,19 z" /><path
       id="MJSZ2-2211-0"
       stroke-width="10"
       d="m 60,948 q 3,2 605,2 h 602 l 58,-135 q 59,-138 63,-146 h -40 l -7,14 q -21,41 -56,78 -50,48 -111,77 -61,29 -141,43 -80,14 -151,17 -71,3 -183,4 H 574 543 251 l 8,-11 q 463,-633 465,-639 1,-2 0,-6 -3,-3 -264,-302 L 196,-356 q 0,-1 211,-1 52,0 141,0 89,0 128,-1 136,0 220,5 84,5 167,21 83,16 141,49 58,33 103,87 21,26 41,72 h 40 q 0,-1 -7,-21 -7,-20 -25,-65 -18,-45 -31,-84 l -58,-155 -601,-1 q -602,0 -605,2 -6,2 -6,9 0,2 2,6 l 533,610 q 0,1 -33,45 -33,44 -105,144 -72,100 -130,178 L 56,909 55,924 q 0,21 5,24 z" /><path
       id="MJMATHI-69-6"
       stroke-width="10"
       d="m 184,600 q 0,24 19,42 19,18 44,19 18,0 30,-12 12,-12 13,-30 0,-23 -20,-42 -20,-19 -44,-20 -15,0 -28,10 -13,10 -14,33 z M 21,287 q 0,8 9,31 9,23 24,51 15,28 44,51 29,23 60,22 39,0 65,-23 26,-23 27,-62 0,-17 -14,-56 -14,-39 -40,-105 -26,-66 -42,-113 -5,-22 -5,-32 0,-25 17,-25 9,0 19,3 10,3 23,14 13,11 27,35 14,24 25,59 3,12 5,14 2,2 17,2 20,0 20,-10 0,-8 -9,-31 -9,-23 -25,-51 -16,-28 -45,-50 -29,-22 -62,-22 -32,0 -59,21 -27,21 -28,64 0,17 5,32 5,15 43,114 38,101 44,121 6,20 7,39 0,24 -17,24 h -2 q -30,0 -55,-33 -25,-33 -38,-84 -1,-1 -2,-3 -1,-2 -1,-3 0,-1 -2,-2 -2,-1 -3,-1 -1,0 -4,0 -3,0 -8,0 H 27 q -6,6 -6,9 z" /><path
       id="MJMAIN-3D-2"
       stroke-width="10"
       d="m 56,347 q 0,13 14,20 h 637 q 15,-8 15,-20 0,-11 -14,-19 L 390,327 H 72 q -16,5 -16,20 z m 0,-194 q 0,15 16,20 h 636 q 14,-10 14,-20 0,-13 -15,-20 H 70 q -14,7 -14,20 z" /><path
       id="MJMAIN-30-6"
       stroke-width="10"
       d="m 96,585 q 56,81 153,81 48,0 96,-26 48,-26 78,-92 37,-83 37,-228 0,-155 -43,-237 -20,-42 -55,-67 -35,-25 -61,-31 -26,-6 -51,-7 -26,0 -52,6 -26,6 -61,32 -35,26 -55,67 -43,82 -43,237 0,174 57,265 z m 225,12 q -30,32 -71,32 -42,0 -72,-32 -25,-26 -33,-72 -8,-46 -8,-192 0,-158 8,-208 8,-50 36,-79 28,-30 69,-30 40,0 68,30 29,30 36,84 7,54 8,203 0,145 -8,191 -8,46 -33,73 z" /><path
       id="MJMATHI-6E-1"
       stroke-width="10"
       d="m 21,287 q 1,6 3,16 2,10 12,38 10,28 20,47 10,19 33,37 23,18 46,17 36,0 60,-18 24,-18 30,-34 6,-16 6,-21 0,-2 1,-2 l 11,11 q 61,64 139,64 54,0 87,-27 33,-27 34,-79 1,-52 -38,-157 -39,-105 -38,-127 0,-26 17,-26 6,0 9,1 29,5 52,38 23,33 35,80 2,8 20,8 20,0 20,-8 0,-1 -4,-15 -8,-29 -22,-57 -14,-28 -46,-56 -32,-28 -69,-27 -47,0 -68,27 -21,27 -21,56 0,19 36,120 36,101 37,152 0,59 -44,59 h -5 Q 288,404 229,303 L 222,291 189,157 Q 156,26 151,16 138,-11 108,-11 95,-11 87,-5 79,1 76,7 q -3,6 -2,10 0,13 38,163 38,150 40,163 1,5 1,23 0,39 -24,39 -38,0 -63,-100 -6,-20 -6,-21 -2,-6 -19,-6 H 27 q -6,6 -6,9 z" /><path
       id="MJMAIN-28-8"
       stroke-width="10"
       d="m 94,250 q 0,69 10,131 10,62 23,107 13,45 37,88 24,43 38,67 14,24 42,52 28,28 33,34 5,6 25,21 h 13 4 q 14,0 14,-9 0,-3 -17,-21 -17,-18 -41,-53 -24,-35 -49,-86 -25,-51 -42,-138 -17,-87 -17,-193 0,-106 17,-192 17,-86 41,-139 24,-53 49,-86 25,-33 42,-53 17,-20 17,-21 0,-9 -15,-9 h -3 -13 l -28,24 Q 180,-141 137,-14 94,113 94,250 Z" /><path
       id="MJMAIN-2B-7"
       stroke-width="10"
       d="m 56,237 q 0,0 0,13 0,13 14,20 h 299 v 150 l 1,150 q 10,13 19,13 13,0 20,-15 V 270 h 298 q 15,-8 15,-20 0,-12 -15,-20 H 409 V -68 q -8,-14 -18,-14 h -2 -2 q -12,0 -18,14 V 230 H 70 q -14,7 -14,20 z" /><path
       id="MJMAIN-31-9"
       stroke-width="10"
       d="m 213,578 -13,-5 q -14,-5 -40,-10 -26,-5 -58,-7 H 83 v 46 h 19 q 47,2 87,15 40,13 56,24 16,11 28,22 2,3 12,3 9,0 17,-6 V 361 l 1,-300 q 7,-7 12,-9 5,-2 24,-4 19,-2 62,-2 h 26 V 0 H 416 Q 395,3 257,3 121,3 100,0 H 88 v 46 h 26 q 22,0 38,0 16,0 25,1 9,1 16,3 7,2 8,2 1,0 6,5 5,5 6,4 z" /><path
       id="MJMAIN-29-2"
       stroke-width="10"
       d="m 60,749 4,1 q 5,0 10,0 h 12 l 28,-24 q 94,-85 137,-212 43,-127 43,-264 0,-68 -10,-131 -10,-63 -23,-107 -13,-44 -37,-88 -24,-44 -38,-67 -14,-23 -41,-51 -27,-28 -32,-33 -5,-5 -23,-19 -3,-3 -4,-4 H 74 q -8,0 -11,0 -3,0 -5,3 -2,3 -3,9 1,1 11,13 155,161 155,475 0,314 -155,475 -10,12 -11,13 0,8 5,11 z" /><path
       id="MJMAIN-32-0"
       stroke-width="10"
       d="m 109,429 q -27,0 -43,18 -16,18 -16,44 0,71 53,123 53,52 132,52 91,0 152,-56 61,-56 62,-145 0,-43 -20,-82 -20,-39 -48,-68 -28,-29 -80,-74 -36,-31 -100,-92 l -59,-56 76,-1 q 157,0 167,5 7,2 24,89 v 3 h 40 v -3 Q 448,183 436,95 424,7 421,3 V 0 H 50 v 19 12 q 0,7 6,15 6,8 30,35 29,32 50,56 9,10 34,37 25,27 34,37 9,10 29,33 20,23 28,34 8,11 23,30 15,19 21,32 6,13 15,29 9,16 13,32 4,16 7,30 3,14 3,33 0,63 -34,109 -34,46 -97,46 -33,0 -58,-17 -25,-17 -35,-33 -10,-16 -10,-19 0,-1 5,-1 18,0 37,-14 19,-14 19,-46 0,-25 -16,-42 -16,-17 -45,-18 z" /><path
       id="MJMATHI-78-2"
       stroke-width="10"
       d="m 52,289 q 7,42 54,97 47,55 116,56 35,0 64,-18 29,-18 43,-45 42,63 101,63 37,0 64,-22 27,-22 28,-59 0,-29 -14,-47 -14,-18 -27,-22 -13,-4 -23,-4 -19,0 -31,11 -12,11 -12,29 0,46 50,63 -11,13 -40,13 -13,0 -19,-2 -38,-16 -56,-66 -60,-221 -60,-258 0,-28 16,-40 16,-12 35,-12 37,0 73,33 36,33 49,81 3,10 6,11 3,1 16,2 h 4 q 15,0 15,-8 0,-1 -2,-11 Q 486,77 440,33 394,-11 333,-11 263,-11 227,52 186,-10 133,-10 h -6 q -49,0 -70,26 -21,26 -22,55 0,32 19,52 19,20 45,20 43,0 43,-42 Q 142,81 130,66 118,51 107,46 96,41 94,41 l -3,-1 q 0,-1 6,-4 6,-3 16,-7 10,-4 19,-3 36,0 62,45 9,16 23,68 14,52 28,108 14,56 16,66 5,27 5,39 0,28 -15,40 -15,12 -34,12 -40,0 -75,-32 -35,-32 -49,-82 -2,-9 -5,-10 -3,-1 -16,-2 H 58 q -6,6 -6,11 z" /><path
       id="MJMATHI-74-3"
       stroke-width="10"
       d="m 26,385 q -7,7 -7,10 0,4 3,16 3,12 5,14 2,5 9,5 7,0 51,1 h 53 l 19,80 q 3,11 7,29 4,18 7,26 3,8 6,20 3,12 8,17 5,5 10,12 5,7 14,9 9,2 18,2 18,-1 25,-11 7,-10 7,-19 0,-7 -9,-47 -9,-40 -20,-79 l -10,-37 q 0,-2 50,-2 h 51 q 7,-7 7,-11 0,-22 -13,-35 H 210 L 174,240 Q 135,80 135,68 q 0,-42 27,-42 35,0 68,34 33,34 53,84 2,6 5,7 3,1 15,2 h 4 q 15,0 15,-8 0,-3 -3,-12 Q 314,117 301,95 288,73 267,48 246,23 216,6 186,-11 155,-11 125,-11 98,4 71,19 59,56 57,64 57,83 v 18 l 35,140 q 35,141 36,142 0,2 -51,2 z" /><path
       id="MJMATHI-68-7"
       stroke-width="10"
       d="m 137,683 q 1,0 72,5 71,5 73,6 12,0 12,-9 0,-11 -36,-151 -38,-148 -38,-151 0,-2 7,5 61,54 130,54 54,0 87,-27 33,-27 34,-79 0,-51 -38,-158 -38,-107 -38,-128 1,-14 5,-19 4,-5 15,-5 28,0 52,30 24,30 39,82 3,11 6,13 3,2 16,2 20,0 20,-8 0,-1 -4,-15 -16,-59 -51,-97 -34,-43 -81,-43 h -5 q -47,0 -68,27 -21,27 -21,57 0,16 36,118 36,102 37,153 0,59 -44,59 h -5 q -83,0 -144,-98 L 198,293 164,158 Q 132,28 127,16 114,-11 83,-11 69,-11 59,-2 49,7 48,16 q 0,14 73,304 l 74,296 q 0,13 -7,16 -7,3 -39,5 h -21 q -6,6 -6,8 0,2 2,19 5,19 13,19 z" /><path
       id="MJMATHI-79"
       stroke-width="10"
       d="m 21,287 q 0,14 15,48 15,34 48,71 33,37 74,36 41,0 66,-23 25,-23 26,-64 -2,-19 -3,-21 0,-3 -16,-46 -16,-43 -33,-97 -17,-54 -16,-86 0,-43 14,-60 14,-17 42,-18 23,0 43,11 20,11 31,23 11,12 27,33 0,1 5,20 5,19 14,59 9,40 19,74 38,150 42,157 13,27 43,27 13,0 21,-7 8,-7 11,-12 3,-5 2,-9 0,-13 -49,-210 -49,-197 -56,-216 -28,-83 -97,-132 -69,-49 -138,-50 -45,0 -79,22 -34,22 -34,66 0,22 7,37 7,15 19,22 12,7 20,10 8,3 17,3 44,0 44,-42 0,-20 -12,-35 -12,-15 -23,-20 -11,-5 -13,-5 l -3,-1 q 2,-5 19,-12 17,-7 34,-7 h 8 q 17,0 26,2 33,9 61,38 28,29 43,62 15,33 23,56 8,23 8,30 l -6,-4 q -6,-4 -19,-11 -13,-7 -26,-12 -20,-5 -39,-5 -46,0 -81,22 -35,22 -46,71 -1,7 -1,31 0,57 35,149 35,92 35,117 0,1 0,2 0,9 0,12 0,3 -4,7 -4,4 -11,4 h -4 Q 131,404 112,385 93,366 82,344 71,322 65,302 59,282 57,280 55,278 41,278 H 27 q -6,6 -6,9 z" /></defs><g
     inkscape:label="Layer 1"
     inkscape:groupmode="layer"
     id="layer1"
     transform="translate(-54.133385,-51.741894)"><rect
       style="opacity:0.99;fill:#ffffff;fill-opacity:1;stroke-width:3;stroke-dasharray:none"
       id="rect2903"
       width="498.93469"
       height="122.08987"
       x="54.133385"
       y="51.741894" /><rect
       style="opacity:0.99;fill:#bbf3ff;fill-opacity:1;stroke-width:2.85087;stroke-dasharray:none"
       id="rect2125"
       width="104.6377"
       height="52.459106"
       x="283.67944"
       y="70.701355" /><g
       stroke="#000000"
       fill="#000000"
       stroke-width="0"
       transform="matrix(0.02569432,0,0,-0.02569432,65.77752,104.11594)"
       data-darkreader-inline-fill=""
       data-darkreader-inline-stroke=""
       id="g899"><use
         xlink:href="#MJMATHI-78"
         id="use891" /><use
         xlink:href="#MJMAIN-28"
         x="577"
         y="0"
         id="use893" /><use
         xlink:href="#MJMATHI-74"
         x="971"
         y="0"
         id="use895" /><use
         xlink:href="#MJMAIN-29"
         x="1337"
         y="0"
         id="use897" /></g><g
       stroke="#000000"
       fill="#000000"
       stroke-width="0"
       transform="matrix(0.0241865,0,0,-0.0241865,315.64539,102.97753)"
       data-darkreader-inline-fill=""
       data-darkreader-inline-stroke=""
       id="g1003"><use
         xlink:href="#MJMATHI-68"
         id="use995" /><use
         xlink:href="#MJMAIN-28-1"
         x="581"
         y="0"
         id="use997" /><use
         xlink:href="#MJMATHI-74-6"
         x="975"
         y="0"
         id="use999" /><use
         xlink:href="#MJMAIN-29-0"
         x="1341"
         y="0"
         id="use1001" /></g><g
       stroke="#000000"
       fill="#000000"
       stroke-width="0"
       transform="matrix(0.02284546,0,0,-0.02284546,506.57291,102.64855)"
       data-darkreader-inline-fill=""
       data-darkreader-inline-stroke=""
       id="g1110"><use
         xlink:href="#MJMATHI-79"
         id="use1102" /><use
         xlink:href="#MJMAIN-28-8"
         x="502"
         y="0"
         id="use1104" /><use
         xlink:href="#MJMATHI-74-3"
         x="896"
         y="0"
         id="use1106" /><use
         xlink:href="#MJMAIN-29-2"
         x="1262"
         y="0"
         id="use1108" /></g><path
       style="fill:none;stroke:#000000;stroke-width:3;stroke-linecap:butt;stroke-linejoin:miter;stroke-dasharray:none;stroke-opacity:1;marker-end:url(#TriangleStart)"
       d="m 110.18045,98.446523 60.14133,0.11602"
       id="path1204"
       sodipodi:nodetypes="cc" /><path
       style="fill:none;stroke:#000000;stroke-width:3;stroke-linecap:butt;stroke-linejoin:miter;stroke-dasharray:none;stroke-opacity:1;marker-end:url(#marker2854)"
       d="m 211.03857,98.562546 61.16086,0"
       id="path1204-2"
       sodipodi:nodetypes="cc" /><path
       style="fill:none;stroke:#000000;stroke-width:3;stroke-linecap:butt;stroke-linejoin:miter;stroke-dasharray:none;stroke-opacity:1;marker-end:url(#marker2854)"
       d="m 388.25771,96.814885 103.95192,0.1223"
       id="path1204-2-7"
       sodipodi:nodetypes="cc" /><circle
       style="opacity:0.99;fill:#bbf3ff;fill-opacity:1;stroke-width:3;stroke-dasharray:none"
       id="path2179"
       cx="196.11134"
       cy="98.562546"
       r="14.927228" /><text
       xml:space="preserve"
       style="font-size:21.1667px;line-height:1.25;font-family:'DejaVu Sans';-inkscape-font-specification:'DejaVu Sans';stroke-width:0.264583"
       x="187.24365"
       y="105.19781"
       id="text2235"><tspan
         sodipodi:role="line"
         id="tspan2233"
         style="font-size:21.1667px;stroke-width:0.264583"
         x="187.24365"
         y="105.19781">+</tspan></text><path
       style="fill:none;stroke:#000000;stroke-width:3;stroke-linecap:butt;stroke-linejoin:miter;stroke-dasharray:none;stroke-opacity:1;marker-end:url(#marker2854)"
       d="m 451.4284,96.937181 v 59.364509 l -255.93015,-0.0673 -0.12653,-31.62811"
       id="path2555"
       sodipodi:nodetypes="cccc" /></g></svg>
