<?xml version="1.0" encoding="utf-8"?>
<!-- Generator: Adobe Illustrator 15.1.0, SVG Export Plug-In . SVG Version: 6.00 Build 0)  -->
<!DOCTYPE svg PUBLIC "-//W3C//DTD SVG 1.1//EN" "http://www.w3.org/Graphics/SVG/1.1/DTD/svg11.dtd">
<svg version="1.1" id="Layer_1" xmlns="http://www.w3.org/2000/svg" xmlns:xlink="http://www.w3.org/1999/xlink" x="0px" y="0px"
	 width="365px" height="148px" viewBox="0 0 365 148" enable-background="new 0 0 365 148" xml:space="preserve">
<g>
	<g>
		<path fill="#1EAACD" d="M72.453,75.88L58.558,61.984V17.58L47.25,6.274c-1.19-1.188-3.118-1.189-4.308,0.001
			c-1.189,1.189-1.189,3.118,0.001,4.307l9.523,9.522v35.789l-8.711-8.712v-22.2L32.316,13.543c-1.188-1.189-3.118-1.189-4.306,0
			c-1.19,1.189-1.19,3.118,0,4.307l9.654,9.655V41.09L20.319,23.745c-1.189-1.19-3.118-1.19-4.307,0
			c-1.189,1.188-1.189,3.117,0,4.306l22.53,22.53c0.011,0.011,0.021,0.021,0.031,0.031l14.772,14.772
			c0.01,0.01,0.02,0.02,0.029,0.029l14.773,14.772L72.453,75.88z"/>
		<path fill="#FAB446" d="M60.761,108.589L36.355,84.187V63.246c0-0.807-0.321-1.582-0.892-2.153L11.962,37.591
			c-1.188-1.189-3.119-1.189-4.307,0c-1.19,1.189-1.19,3.118,0,4.307l22.609,22.61v13.588L7.155,54.987
			c-1.189-1.19-3.118-1.19-4.306,0c-1.19,1.189-1.19,3.118,0,4.306l28.304,28.304c0.003,0.002,0.005,0.006,0.008,0.008l9.599,9.598
			H26.86L9.234,79.578c-1.188-1.189-3.118-1.189-4.307,0c-1.189,1.189-1.189,3.118,0,4.307l18.517,18.517
			c0.571,0.57,1.346,0.893,2.153,0.893h21.252l13.908,13.908L60.761,108.589z"/>
		<path fill="#1EAACD" d="M65.065,117.203l13.909-13.908h22.204l19.406-19.41c1.19-1.189,1.19-3.118,0-4.307
			c-1.189-1.188-3.117-1.189-4.306,0L98.656,97.203H85.065l37.911-37.91c1.189-1.188,1.189-3.117,0-4.306
			c-1.19-1.19-3.117-1.19-4.307,0l-53.604,53.603V117.203z"/>
		<path fill="#FAB446" d="M73.36,85.448V42.305L97.814,17.85c1.19-1.189,1.19-3.118,0-4.307c-1.189-1.189-3.117-1.189-4.306,0
			L73.36,33.692V6.127c0-1.682-1.364-3.045-3.045-3.045c-1.682,0-3.045,1.364-3.045,3.045v79.32H73.36z"/>
		<path fill="#C8415F" d="M118.172,37.591c-1.19-1.189-3.117-1.189-4.307,0L88.16,63.295V49.706l21.652-21.655
			c1.189-1.189,1.189-3.118,0-4.307c-1.19-1.188-3.117-1.189-4.307,0.001L82.961,46.292c-0.571,0.571-0.892,1.346-0.892,2.153
			v20.941L62.912,88.541L48.707,74.337c-1.189-1.188-3.118-1.188-4.307,0.001c-1.189,1.189-1.189,3.118,0,4.307l15.466,15.464v47.66
			c0,1.682,1.364,3.045,3.045,3.045c1.682,0,3.046-1.363,3.046-3.045v-47.66l52.214-52.211
			C119.362,40.708,119.362,38.78,118.172,37.591z"/>
	</g>
	<g>
		<path fill="#C8415F" d="M162.068,55.077l-3.092-6.911c-1.014-2.26-2.105-4.807-2.443-5.923c0.13,1.48,0.156,3.61,0.182,5.118
			l0.104,7.716h-3.508V37.02h4.027l3.456,7.223c0.909,1.922,1.611,3.819,1.974,5.118c-0.129-1.402-0.259-3.715-0.285-4.963
			l-0.078-7.378h3.456v18.057H162.068z"/>
		<path fill="#C8415F" d="M177.786,55.389c-2.494,0-4.417-0.805-5.897-2.494c-1.456-1.637-2.183-3.819-2.183-6.47
			c0-2.26,0.389-4.052,1.22-5.612c1.404-2.624,4.001-4.183,6.912-4.183c1.793,0,3.585,0.572,4.572,1.429l-1.637,2.469
			c-0.908-0.676-1.869-1.013-2.883-1.013c-1.22,0-2.416,0.597-3.065,1.559c-0.702,1.039-1.014,2.546-1.014,4.651
			c0,2.468,0.208,3.846,0.753,4.832c0.728,1.326,1.923,2.027,3.482,2.027c1.065,0,2.026-0.313,3.092-1.169l1.662,2.287
			C181.372,54.87,179.838,55.389,177.786,55.389z"/>
		<path fill="#C8415F" d="M192.698,55.389c-2.495,0-4.417-0.805-5.897-2.494c-1.455-1.637-2.184-3.819-2.184-6.47
			c0-2.26,0.391-4.052,1.221-5.612c1.402-2.624,4.002-4.183,6.911-4.183c1.794,0,3.587,0.572,4.573,1.429l-1.636,2.469
			c-0.911-0.676-1.871-1.013-2.885-1.013c-1.221,0-2.416,0.597-3.065,1.559c-0.702,1.039-1.015,2.546-1.015,4.651
			c0,2.468,0.208,3.846,0.754,4.832c0.728,1.326,1.923,2.027,3.482,2.027c1.065,0,2.025-0.313,3.091-1.169l1.663,2.287
			C196.283,54.87,194.75,55.389,192.698,55.389z"/>
		<path fill="#C8415F" d="M209.376,55.077c-0.701-1.195-0.988-1.689-1.689-2.962c-1.793-3.248-2.338-4.131-2.989-4.417
			c-0.181-0.078-0.338-0.13-0.57-0.156v7.534h-3.56V37.02h6.729c3.197,0,5.301,2.131,5.301,5.3c0,2.702-1.792,4.937-4.027,4.989
			c0.364,0.285,0.52,0.442,0.753,0.753c1.04,1.299,4.34,7.015,4.34,7.015H209.376z M207.479,40.189
			c-0.416-0.156-1.169-0.26-2.053-0.26h-1.299v4.885h1.222c1.559,0,2.233-0.155,2.728-0.598c0.441-0.416,0.702-1.065,0.702-1.819
			C208.779,41.281,208.336,40.501,207.479,40.189z"/>
	</g>
	<g>
		<g>
			<path fill="#C8415F" d="M168.47,98.803c-3.704,0-6.854-1.77-8.512-5.416c-0.995-2.156-1.493-4.811-1.493-9.508
				c0-4.533,0.663-7.738,1.99-10.06c1.658-2.929,4.367-4.587,7.627-4.587c2.377,0,4.478,0.663,6.522,2.156l2.93-4.201
				c-2.266-1.879-5.803-2.984-9.507-2.984c-5.969,0-11.22,3.316-14.095,8.789c-1.713,3.206-2.542,7.02-2.542,11.607
				c0,5.527,1.493,10.169,4.368,13.653c2.984,3.592,7.02,5.525,12.104,5.525c4.09,0,7.462-1.104,10.447-3.37l-2.985-4.035
				C173.167,98.084,171.177,98.803,168.47,98.803z"/>
			<path fill="#C8415F" d="M203.544,93.994l0.11-8.015c0.055-4.146,0.055-5.637-0.442-6.854c-1.217-3.041-4.146-4.644-8.512-4.644
				c-4.2,0-7.684,1.161-11.883,3.814l2.708,4.367c0,0,4.311-3.207,8.345-3.207c3.317,0,3.868,1.713,3.868,4.92v1.492h-1.878
				c-8.954,0-13.817,3.262-13.817,9.728c0,4.865,2.873,8.403,9.286,8.403c2.984,0,5.416-0.886,7.681-3.43
				c0.665,1.771,2.103,3.097,3.815,3.759l3.15-3.867C203.821,98.968,203.489,97.752,203.544,93.994z M197.52,96.647
				c-1.217,1.77-3.097,2.931-5.031,2.931c-2.433,0-3.868-1.659-3.868-4.313c0-3.537,1.823-5.307,7.903-5.307
				c0.442,0,1.106,0.056,1.106,0.056L197.52,96.647z"/>
			<path fill="#C8415F" d="M250.79,93.994l0.11-8.015c0.056-4.146,0.056-5.637-0.441-6.854c-1.216-3.041-4.147-4.644-8.513-4.644
				c-4.2,0-7.684,1.161-11.885,3.814l2.709,4.367c0,0,4.312-3.207,8.348-3.207c3.315,0,3.868,1.713,3.868,4.92v1.492h-1.879
				c-8.955,0-13.818,3.262-13.818,9.728c0,4.865,2.874,8.403,9.285,8.403c2.985,0,5.417-0.886,7.685-3.43
				c0.662,1.771,2.1,3.097,3.813,3.759l3.149-3.867C251.066,98.968,250.734,97.752,250.79,93.994z M244.764,96.647
				c-1.215,1.77-3.095,2.931-5.029,2.931c-2.432,0-3.869-1.659-3.869-4.313c0-3.537,1.823-5.307,7.904-5.307
				c0.441,0,1.104,0.056,1.104,0.056L244.764,96.647z"/>
			<path fill="#C8415F" d="M312.281,86.642l-3.482-0.884c-2.82-0.719-3.758-1.603-3.758-3.316c0-2.156,1.658-3.593,4.256-3.593
				c2.211,0,4.256,0.663,6.854,2.045l1.99-4.201c-2.377-1.272-5.416-2.432-9.232-2.432c-6.189,0-10.391,3.648-10.391,8.899
				c0,3.924,2.486,6.798,6.689,7.683l3.369,0.719c3.152,0.662,4.533,1.769,4.533,3.926c0,2.32-1.879,3.924-4.533,3.924
				c-3.148,0-6.576-1.493-9.064-2.932l-2.154,4.367c3.592,1.991,7.297,3.096,10.721,3.096c6.744,0,11.332-3.869,11.332-9.506
				C319.41,91.175,317.917,88.081,312.281,86.642z"/>
			<path fill="#C8415F" d="M328.638,62.93c-2.268,0-4.035,1.824-4.035,4.09c0,2.211,1.711,4.035,3.924,4.035
				c2.266,0,4.09-1.824,4.09-4.035C332.617,64.699,330.792,62.93,328.638,62.93z"/>
			<rect x="325.488" y="75.201" fill="#C8415F" width="6.135" height="27.968"/>
			<path fill="#C8415F" d="M352.136,86.642l-3.482-0.884c-2.819-0.719-3.76-1.603-3.76-3.316c0-2.156,1.658-3.593,4.256-3.593
				c2.212,0,4.258,0.663,6.854,2.045l1.99-4.201c-2.378-1.272-5.417-2.432-9.231-2.432c-6.189,0-10.393,3.648-10.393,8.899
				c0,3.924,2.488,6.798,6.689,7.683l3.372,0.719c3.15,0.662,4.532,1.769,4.532,3.926c0,2.32-1.878,3.924-4.532,3.924
				c-3.151,0-6.577-1.493-9.065-2.932l-2.156,4.367c3.594,1.991,7.295,3.096,10.724,3.096c6.743,0,11.331-3.869,11.331-9.506
				C359.265,91.175,357.773,88.081,352.136,86.642z"/>
		</g>
		<path fill="#C8415F" d="M289.224,75.201l-4.642,15.144c-1.05,3.373-2.046,7.352-2.102,7.573
			c-0.11-0.442-6.479-22.717-6.479-22.717h-6.47l8.559,26.682c0.536,1.623,2.456,1.286,2.456,1.286
			c-1.475,4.932-3.422,6.682-6.693,7.749l1.218,4.183c6.546-1.223,8.465-4.595,10.782-11.325l9.894-28.575H289.224z"/>
		<path fill="#C8415F" d="M224.56,99.104c-0.931,0.327-1.608,0.474-2.377,0.474c-2.653,0-3.427-0.995-3.427-4.478V79.402h5.804
			v-4.201h-5.747v-8.154l-6.026,1.396v6.758h-3.095v4.201h3.095v17.301c0,3.979,1.879,7.186,7.297,7.186
			c1.874,0,3.639-0.386,5.456-1.21L224.56,99.104z"/>
		<path fill="#C8415F" d="M265.295,98.913c-0.44-0.662-0.606-1.271-0.606-5.03l-0.001-29.681h-6.19v31.673
			c0,2.376,0,7.901,6.135,7.901c1.382,0,2.543-0.22,3.649-0.662l-0.995-3.758C266.567,99.686,265.628,99.412,265.295,98.913z"/>
	</g>
</g>
</svg>
