<?xml version="1.0" standalone="no"?>
<!DOCTYPE svg PUBLIC "-//W3C//DTD SVG 20010904//EN"
 "http://www.w3.org/TR/2001/REC-SVG-20010904/DTD/svg10.dtd">
<svg version="1.0" xmlns="http://www.w3.org/2000/svg"
 width="61.000000pt" height="61.000000pt" viewBox="0 0 61.000000 61.000000"
 preserveAspectRatio="xMidYMid meet">

<g transform="translate(0.000000,61.000000) scale(0.100000,-0.100000)"
fill="#000000" stroke="none">
<path d="M476 464 c-9 -8 -16 -19 -16 -24 0 -13 30 -40 44 -40 28 0 36 22 18
52 -19 32 -25 34 -46 12z"/>
<path d="M291 392 c-13 -4 -34 -20 -45 -35 -19 -26 -21 -42 -21 -165 l0 -137
28 -3 27 -3 0 75 0 76 50 0 50 0 0 -45 c0 -43 1 -45 30 -45 l30 0 0 88 c0 104
-13 157 -44 177 -28 19 -74 26 -105 17z m87 -104 l3 -48 -50 0 -51 0 0 43 c0
24 3 47 7 51 4 4 25 6 48 4 l40 -3 3 -47z"/>
<path d="M480 218 l1 -103 24 30 c21 26 25 40 25 103 0 70 -1 72 -25 72 l-25
0 0 -102z"/>
</g>
</svg>
