<svg width="187" height="180" viewBox="0 0 187 40" fill="none" xmlns="http://www.w3.org/2000/svg" style="background-color: #000;">
<path d="M179.254 38.7071H174.571L176.944 32.4695L172.701 22.9135V22.9555H169.887V28.8571C169.887 29.9072 170.391 30.3482 171.336 30.3482C171.882 30.3482 172.302 30.2642 172.743 30.1172V33.8346C172.113 33.9816 171.189 34.2547 170.034 34.2547C166.8 34.2547 164.994 32.7005 164.994 29.3401V22.9765H163.271V19.6161H164.994V16.6338H169.887V19.6161H171.252H172.722H176.566L179.506 27.2399L182.236 19.6161H186.92L179.254 38.7071ZM156.782 33.9186H161.675V19.6161H156.782V33.9186ZM150.586 33.9186L155.816 19.5951H151.132L148.192 28.8151L145.21 19.5951H139.98L145.231 33.9186C145.252 33.9186 150.586 33.9186 150.586 33.9186ZM135.065 28.038H133.784C131.81 28.038 130.928 28.437 130.928 29.5922C130.928 30.4113 131.474 30.9363 132.629 30.9363C134.036 30.9363 135.065 30.1592 135.065 28.9201V28.038ZM135.17 33.9186V32.2385C134.477 33.2886 133.217 34.2547 130.949 34.2547C128.366 34.2547 126.097 32.9945 126.097 29.9492C126.097 26.5888 128.954 25.2657 133.7 25.2657H135.086V24.9297C135.086 23.5435 134.75 22.6614 133.196 22.6614C131.936 22.6614 131.432 23.3545 131.264 24.1736H126.644C126.959 20.8552 129.626 19.2171 133.469 19.2171C137.397 19.2171 139.938 20.8342 139.938 24.6566V33.9186H135.17ZM126.076 24.1946V19.4061C123.85 19.3851 122.359 20.3092 121.456 22.4514V19.6161H116.562V33.9396H121.456V27.3449C121.477 25.0557 123.115 24.1106 126.076 24.1946ZM109.359 26.1268C109.359 24.1526 108.33 22.8925 106.544 22.8925C104.717 22.8925 103.73 24.1736 103.73 26.1478V26.3578C103.73 28.332 104.78 29.5922 106.523 29.5922C108.267 29.5922 109.38 28.332 109.38 26.3158L109.359 26.1268ZM114.105 32.7215C114.105 36.985 111.291 39.2322 106.187 39.2322C101.315 39.2322 99.0676 37.195 98.6896 33.9186H103.562C103.772 34.9687 104.423 35.7668 106.187 35.7668C108.351 35.7668 109.233 34.5487 109.233 32.7635V30.5793C108.498 31.9654 106.922 33.2046 104.801 33.2046C101.462 33.2046 98.7316 30.7263 98.7316 26.3368V26.1268C98.7316 21.9263 101.441 19.2381 104.801 19.2381C107.069 19.2381 108.414 20.2042 109.233 21.6323V19.6161H114.105V32.7215ZM89.0915 26.6098C89.0915 24.2156 88.0624 22.9345 86.2772 22.9345C84.45 22.9345 83.4629 24.1526 83.4629 26.6519V26.8619C83.4629 29.2561 84.534 30.4953 86.2352 30.4953C87.9994 30.4953 89.1125 29.2771 89.1125 26.8409L89.0915 26.6098ZM88.9655 33.9186V31.5874C88.2514 33.0575 86.6553 34.2337 84.492 34.2337C81.1947 34.2337 78.4644 31.8604 78.4644 26.9039V26.6939C78.4644 21.8213 81.1527 19.2171 84.534 19.2171C86.7813 19.2171 88.1044 20.1832 88.9445 21.6113V13.5465H93.838V33.8976C93.838 33.9186 88.9655 33.9186 88.9655 33.9186ZM72.1007 33.9186H76.9942V24.6146C76.9942 20.9602 75.062 19.2171 72.3107 19.2171C69.9375 19.2171 68.3833 20.4142 67.6062 21.9053V19.5951H62.7127V33.9186H67.6062V25.9168C67.6062 24.0896 68.5933 23.2075 70.0425 23.2075C71.4706 23.2075 72.0797 23.9846 72.0797 25.6017L72.1007 33.9186ZM56.265 26.6519C56.265 24.2576 55.2989 22.8925 53.4507 22.8925C51.6235 22.8925 50.5944 24.1736 50.5944 26.5678V26.7779C50.5944 29.2561 51.5605 30.6003 53.4507 30.6003C55.2779 30.6003 56.265 29.2141 56.265 26.8409V26.6519ZM61.2425 26.8199C61.2425 31.4824 57.8192 34.2547 53.4087 34.2547C48.9982 34.2547 45.5749 31.5664 45.5749 26.9459V26.7359C45.5749 22.1364 48.9982 19.2381 53.4297 19.2381C57.8402 19.2381 61.2425 22.0524 61.2425 26.5888V26.8199ZM38.8542 38.7071L46.499 19.6161H41.8155L39.0852 27.2399L36.1449 19.6161H30.8313L36.5649 32.4905L34.1917 38.7281H38.8542V38.7071ZM26.8619 25.1397C26.7779 23.4175 25.9378 22.4514 24.3416 22.4514C22.8715 22.4514 21.8423 23.4175 21.6113 25.1397H26.8619ZM21.5693 27.891C21.7163 29.7812 22.7874 30.8733 24.5516 30.8733C26.1688 30.8733 26.8619 30.1382 27.0509 29.1721H31.6504C31.2093 32.4065 28.7101 34.2337 24.3836 34.2337C19.8891 34.2337 16.6128 31.6084 16.6128 26.9249V26.7149C16.6128 22.1154 20.0361 19.2171 24.3626 19.2171C28.269 19.2171 31.6504 21.4643 31.6504 26.5888V27.87L21.5693 27.891ZM10.4171 26.6519C10.4171 24.1316 9.325 22.9345 7.60282 22.9345C5.83863 22.9345 4.74651 24.2156 4.74651 26.6098V26.8199C4.74651 29.2561 5.81762 30.4743 7.60282 30.4743C9.43001 30.4743 10.4171 29.1931 10.4171 26.8409V26.6519ZM15.3946 26.8829C15.3946 31.7974 12.6854 34.2547 9.325 34.2547C7.18277 34.2547 5.6076 33.2256 4.89352 31.7134V33.9396H0V13.5885H4.89352V21.7793C5.71261 20.3932 7.20377 19.2591 9.367 19.2591C12.7064 19.2591 15.4156 21.7793 15.4156 26.6729L15.3946 26.8829Z" fill="white"/>
<path d="M159.218 6.76272C161.086 6.76272 162.599 5.24884 162.599 3.38136C162.599 1.51389 161.086 0 159.218 0C157.351 0 155.837 1.51389 155.837 3.38136C155.837 5.24884 157.351 6.76272 159.218 6.76272Z" fill="#327FEF"/>
</svg>
